<svg width="26" height="24" viewBox="0 0 26 24" fill="none" xmlns="http://www.w3.org/2000/svg">
<g clip-path="url(#clip0_20_33)">
<path d="M16.2331 21.0939C16.2331 21.254 16.2341 21.4033 16.2331 21.5521C16.2273 22.1473 16.2221 22.7425 16.2149 23.3372C16.2128 23.517 16.2581 23.6781 16.3871 23.8151C16.4865 23.921 16.6125 23.9777 16.7582 23.9925C16.9003 24.0067 17.0413 23.9974 17.1787 23.9535C18.5626 23.5121 19.8393 22.8794 20.9875 22.0236C22.5946 20.8254 23.8401 19.3487 24.741 17.6129C25.288 16.5586 25.6482 15.4475 25.8386 14.2867C25.9682 13.4915 26.0203 12.6918 25.9927 11.8882C25.9375 10.2663 25.5748 8.70933 24.8591 7.23123C24.2648 6.00391 23.4862 4.89188 22.5134 3.90253C21.5204 2.892 20.3738 2.07313 19.0904 1.42128C18.1135 0.925134 17.0845 0.557578 16.0051 0.319111C15.4123 0.188052 14.8117 0.101336 14.2048 0.0496026C13.5688 -0.00459458 12.9323 -0.0129705 12.2958 0.0156062C11.4147 0.0550224 10.546 0.179183 9.69144 0.389567C8.17951 0.761064 6.79248 1.38532 5.51476 2.23178C4.71378 2.76242 3.98462 3.37041 3.33144 4.05921C2.62674 4.8027 2.02665 5.61615 1.52597 6.49464C1.06589 7.30168 0.705208 8.14667 0.451746 9.03205C0.263859 9.68882 0.135307 10.3559 0.0660858 11.0339C0.00987625 11.5813 -0.0125027 12.1292 0.0046711 12.6785C0.0577583 14.3646 0.438213 15.9777 1.20329 17.506C1.72947 18.557 2.40398 19.5153 3.20601 20.3947C4.22142 21.5078 5.40859 22.4193 6.77635 23.1179C7.43369 23.4539 8.11809 23.7318 8.82747 23.956C8.96488 23.9993 9.10644 24.0097 9.24801 23.9925C9.52489 23.958 9.73672 23.7392 9.76066 23.4702C9.76534 23.417 9.7643 23.3628 9.7643 23.3091C9.7643 22.2182 9.76326 21.1279 9.76482 20.037C9.76534 19.6212 9.80437 19.2088 9.93397 18.8087C10.0594 18.4205 10.2598 18.0741 10.5757 17.7928C10.5924 17.778 10.6074 17.7608 10.6361 17.7322C10.4955 17.7149 10.3722 17.7002 10.2488 17.6844C9.43017 17.5794 8.62762 17.4193 7.874 17.0833C7.33949 16.8453 6.83308 16.5679 6.39173 16.1905C5.89417 15.7653 5.53766 15.2504 5.28212 14.6686C5.00679 14.0404 4.83973 13.387 4.76426 12.7111C4.71222 12.244 4.69192 11.7764 4.72054 11.3083C4.78456 10.2461 5.17646 9.30649 5.91395 8.49895C5.95351 8.45559 5.99358 8.41223 6.03574 8.36641C6.03366 8.35212 6.03418 8.33636 6.02845 8.32305C5.71878 7.57661 5.6964 6.81292 5.8718 6.03692C5.93737 5.7477 6.03158 5.46637 6.13827 5.18848C6.16689 5.1131 6.21165 5.07713 6.29337 5.06679C6.50103 5.04018 6.70609 5.05151 6.91063 5.09093C7.34677 5.17567 7.75221 5.34171 8.15869 5.50677C8.67498 5.71666 9.15172 5.99307 9.62013 6.28376C9.70757 6.33796 9.78564 6.3552 9.89025 6.32761C10.5637 6.14974 11.2512 6.04086 11.9471 5.98568C12.5992 5.93394 13.2514 5.93099 13.9045 5.97582C14.6144 6.0246 15.315 6.1261 16.0015 6.3015C16.1758 6.34584 16.3065 6.33254 16.459 6.23301C17.21 5.74524 18.0359 5.40182 18.9035 5.14562C19.1253 5.08009 19.3532 5.0456 19.5874 5.05644C19.5994 5.05693 19.6119 5.05644 19.6239 5.05743C19.8268 5.06777 19.8284 5.07122 19.8981 5.25056C20.0673 5.68463 20.1828 6.13102 20.225 6.59219C20.277 7.16175 20.2115 7.71851 19.9981 8.25654C19.9866 8.28512 19.9757 8.31418 19.9653 8.34276C19.9642 8.34621 19.9653 8.35015 19.9653 8.36444C20.0402 8.44869 20.123 8.53738 20.201 8.62951C20.8136 9.34886 21.1764 10.1682 21.2576 11.0876C21.3632 12.2888 21.2258 13.4634 20.746 14.5902C20.5539 15.0415 20.3114 15.4648 19.9762 15.8372C19.5869 16.2698 19.1143 16.6004 18.5902 16.8729C17.8017 17.2828 16.956 17.5208 16.0702 17.642C15.8818 17.6676 15.6923 17.6893 15.5039 17.7135C15.469 17.7179 15.4347 17.7268 15.3884 17.7361C15.431 17.779 15.4664 17.815 15.5018 17.8509C15.8406 18.1948 16.0337 18.6082 16.1404 19.0615C16.1597 19.1438 16.1784 19.227 16.1878 19.3103C16.194 19.364 16.2195 19.3911 16.2695 19.4113C16.5839 19.5414 16.9107 19.6281 17.2511 19.6641C17.428 19.6828 17.6071 19.6872 17.7851 19.6976C18.2264 19.7232 18.6256 19.604 18.9946 19.3808C19.4006 19.1349 19.705 18.7999 19.9408 18.4072C20.277 17.848 20.7704 17.4592 21.3903 17.2119C21.6703 17.1 21.9685 17.0636 22.2725 17.1099C22.3354 17.1198 22.4 17.1365 22.4572 17.1631C22.5592 17.2104 22.5811 17.275 22.5296 17.3715C22.4973 17.4326 22.4583 17.4927 22.4135 17.5464C22.312 17.6681 22.1892 17.7721 22.045 17.843C21.7416 17.9918 21.5136 18.216 21.306 18.4653C21.0046 18.8275 20.7767 19.2295 20.6091 19.6596C20.3228 20.3938 19.7498 20.8259 18.9827 21.0422C18.7089 21.119 18.419 21.155 18.1333 21.1786C17.8028 21.2062 17.4681 21.2151 17.1371 21.2033C16.8628 21.1934 16.5906 21.1407 16.3174 21.1072C16.2976 21.1047 16.2778 21.1018 16.2341 21.0954L16.2331 21.0939Z" fill="#ffffff"/>
</g>
<defs>
<clipPath id="clip0_20_33">
<rect width="26" height="24" fill="white" transform="matrix(-1 0 0 1 26 0)"/>
</clipPath>
</defs>
</svg>
