<?xml version="1.0" encoding="UTF-8"?>
<svg id="Layer_2" data-name="Layer 2" xmlns="http://www.w3.org/2000/svg" viewBox="0 0 142.26 157.78">
  <defs>
    <style>
      .cls-1 {
        fill: #86a2c0;
      }

      .cls-1, .cls-2, .cls-3, .cls-4, .cls-5 {
        stroke-width: 0px;
      }

      .cls-2 {
        fill: #6e8cb7;
      }

      .cls-3 {
        fill: #3f68aa;
      }

      .cls-4 {
        fill: #5a7bb0;
      }

      .cls-5 {
        fill: #355eab;
      }
    </style>
  </defs>
  <g id="Layer_2-2" data-name="Layer 2">
    <g>
      <path class="cls-5" d="m142.25,120.7c.07,3.41-1.63,7.78-3.7,10.07-2.08,2.3-9.48,12.15-28.52,20.74-10.1,4.56-20.79,5.94-28.59,6.22-.21.01-.42.01-.62.02,4.71-12.14,8.3-26.91,10.24-35.7.38-.11.76-.23,1.13-.34,7.31-2.26,11.99-5.46,11.99-5.46,0,0,5.4-3.77,8.89-7.92,3.48-4.15,12.22-7.71,20.37-3.11,8.14,4.59,8.74,12.07,8.81,15.48Z"/>
      <path class="cls-3" d="m92.19,121.71c-2.4,10.47-6.09,24.56-10.75,36.02-6.91.24-11.56-.36-11.56-.36,0,0-10.07-.67-24.15-6.75-14.07-6.07-25.78-19.25-25.78-19.25,0,0-2.73-2.82-6.19-7.99-.1-.15-.2-.3-.29-.45,10.41-1.11,24.31-3.24,39.75-7.33.14.1.28.2.42.3.93.66,1.91,1.29,2.93,1.91,13.34,8.07,26.52,6.71,35.62,3.9Z"/>
      <path class="cls-4" d="m53.64,115.9c-8.61,2.56-22.85,6.07-39.88,7.48-2.87-4.27-6.24-10.15-8.99-17.35C-1.3,90.11-.19,74.4.7,68.7c.54-3.53,1.61-9.32,3.81-15.74.08-.24.16-.47.25-.71,7.97,4.64,19.54,10.53,31.19,13.57-.02.08-.05.16-.07.24-1.7,5.83-1.65,10.49-1.81,12.86,0,0-1.43,22.31,19.57,36.98Z"/>
      <path class="cls-2" d="m76.13,34.12c-.34.03-.67.06-1,.09-4.62.41-8.29,1.4-10.01,1.99-3.22,1.11-14,4.72-22.55,16.44-3.5,4.8-5.51,9.39-6.69,13.42-8.31-1.91-18.89-5.73-31.37-13.1,1.36-3.95,3.15-8.15,5.52-12.19,6.22-10.59,12.29-19.26,27.85-29.26C50.36,3.49,64.83.38,77.07.04c.45-.01.89-.02,1.33-.03-1.97,7.86-4.34,21.13-2.27,34.11Z"/>
      <path class="cls-1" d="m139.66,37.44c-1.63,11.11-11.11,13.85-13.41,14.37-2.3.52-6.77.61-10.6-1.22-3.83-1.84-5.95-4.81-8.67-6.81-2.72-2-8.03-6.3-18.3-8.75-4.79-1.14-9.53-1.2-13.55-.82-1.22-11.88.24-24.62,1.94-34.17,3.02-.09,5.91-.01,8.59.21,13.55,1.12,28.74,6.67,37.78,13.41,9.03,6.74,17.85,12.67,16.22,23.78Z"/>
    </g>
  </g>
</svg>